<svg width="18" height="18" viewBox="0 0 18 18" fill="none" xmlns="http://www.w3.org/2000/svg">
<path d="M17.5112 0.197009C17.8663 0.443103 18.0526 0.868494 17.9858 1.29388L15.7358 15.9189C15.6831 16.2599 15.4757 16.5587 15.1733 16.7275C14.871 16.8962 14.5089 16.9173 14.1889 16.7837L9.98425 15.0365L7.57605 17.6415C7.26316 17.9826 6.77097 18.0951 6.33855 17.9263C5.90613 17.7576 5.62488 17.3392 5.62488 16.8751V13.9361C5.62488 13.7954 5.67761 13.6619 5.77253 13.5599L11.6647 7.12982C11.8686 6.90834 11.8616 6.56732 11.6507 6.35638C11.4397 6.14545 11.0987 6.13138 10.8772 6.33178L3.72644 12.6845L0.622144 11.1306C0.249487 10.9443 0.0104248 10.5716 -0.00012211 10.1568C-0.010669 9.74193 0.2073 9.35521 0.565894 9.14779L16.3159 0.147791C16.6921 -0.0666624 17.1561 -0.0455687 17.5112 0.197009Z" fill="#0A4588"/>
</svg>
